<?xml version="1.0" encoding="UTF-8"?><svg id="Capa_2" xmlns="http://www.w3.org/2000/svg" viewBox="0 0 24.96 25"><defs><style>.cls-1{fill:#7c66f6;stroke-width:0px;}</style></defs><g id="Capa_1-2"><path class="cls-1" d="m12.47,6.06c-3.54,0-6.41,2.87-6.41,6.41s2.87,6.41,6.41,6.41,6.41-2.87,6.41-6.41-2.87-6.41-6.41-6.41Zm0,10.57c-2.3,0-4.16-1.86-4.16-4.16s1.86-4.16,4.16-4.16,4.16,1.86,4.16,4.16-1.86,4.16-4.16,4.16Z"/><circle class="cls-1" cx="19.13" cy="5.83" r="1.49"/><path class="cls-1" d="m24.88,7.38c-.02-1.05-.21-2.09-.58-3.07-.65-1.67-1.97-3-3.65-3.65-.97-.36-2-.56-3.03-.58-1.33-.06-1.76-.08-5.14-.08s-3.82,0-5.14.08c-1.04.02-2.06.22-3.03.58-1.67.65-3,1.97-3.65,3.65-.36.97-.56,2-.58,3.03-.06,1.33-.08,1.76-.08,5.14s0,3.82.08,5.14c.02,1.04.22,2.06.58,3.03.65,1.67,1.97,3,3.65,3.65.97.38,1.99.59,3.03.62,1.33.06,1.76.08,5.14.08s3.82,0,5.14-.08c1.04-.02,2.06-.22,3.03-.58,1.67-.65,3-1.97,3.65-3.65.36-.97.56-2,.58-3.03.06-1.33.08-1.76.08-5.14s0-3.82-.08-5.14Zm-2.25,10.14h-.02c0,.8-.15,1.59-.43,2.34-.42,1.09-1.28,1.95-2.37,2.37-.74.27-1.52.42-2.31.43-1.32.06-1.69.08-5.07.08s-3.72,0-5.07-.08c-.79-.01-1.57-.16-2.31-.43-1.09-.42-1.96-1.28-2.38-2.37-.27-.74-.42-1.52-.43-2.31-.06-1.32-.08-1.69-.08-5.07s0-3.72.08-5.07c0-.8.15-1.59.43-2.34.42-1.09,1.29-1.96,2.38-2.37.74-.27,1.52-.42,2.31-.43,1.32-.06,1.69-.08,5.07-.08s3.72,0,5.07.08c.79.01,1.57.16,2.31.43,1.09.42,1.95,1.28,2.37,2.37.27.74.42,1.52.43,2.31.06,1.32.08,1.69.08,5.07s0,3.74-.06,5.07Z"/></g></svg>