<?xml version="1.0" encoding="utf-8"?>
<!-- Generator: Adobe Illustrator 28.0.0, SVG Export Plug-In . SVG Version: 6.00 Build 0)  -->
<svg version="1.1" id="Capa_2_00000025415772825628416240000002889673780262150803_"
	 xmlns="http://www.w3.org/2000/svg" xmlns:xlink="http://www.w3.org/1999/xlink" x="0px" y="0px" viewBox="0 0 25 25"
	 style="enable-background:new 0 0 25 25;" xml:space="preserve">
<style type="text/css">
	.st0{fill:#EDE9EF;}
</style>
<g id="Capa_1-2">
	<path class="st0" d="M12.5,6.1C9,6.1,6.1,9,6.1,12.5s2.9,6.4,6.4,6.4s6.4-2.9,6.4-6.4S16,6.1,12.5,6.1z M12.5,16.6
		c-2.3,0-4.2-1.9-4.2-4.2s1.9-4.2,4.2-4.2s4.2,1.9,4.2,4.2S14.8,16.6,12.5,16.6z"/>
	<circle class="st0" cx="19.1" cy="5.8" r="1.5"/>
	<path class="st0" d="M24.9,7.4c0-1.1-0.2-2.1-0.6-3.1c-0.6-1.7-2-3-3.6-3.7c-1-0.4-2-0.6-3-0.6c-1.4,0-1.8,0-5.2,0S8.7,0,7.3,0.1
		c-1,0-2.1,0.2-3,0.6c-1.7,0.6-3,2-3.7,3.7c-0.4,1-0.6,2-0.6,3c0,1.3,0,1.7,0,5.1s0,3.8,0.1,5.1c0,1,0.2,2.1,0.6,3
		c0.6,1.7,2,3,3.7,3.6c1,0.4,2,0.6,3,0.6C8.7,25,9.1,25,12.5,25s3.8,0,5.1-0.1c1,0,2.1-0.2,3-0.6c1.7-0.6,3-2,3.6-3.6
		c0.4-1,0.6-2,0.6-3c0.1-1.3,0.1-1.8,0.1-5.1S25,8.7,24.9,7.4z M22.6,17.5L22.6,17.5c0,0.8-0.2,1.6-0.5,2.3c-0.4,1.1-1.3,2-2.4,2.4
		c-0.7,0.3-1.5,0.4-2.3,0.4c-1.3,0.1-1.7,0.1-5.1,0.1s-3.7,0-5.1-0.1c-0.8,0-1.6-0.2-2.3-0.4c-1.1-0.4-2-1.3-2.4-2.4
		c-0.3-0.7-0.4-1.5-0.4-2.3C2,16.2,2,15.8,2,12.4s0-3.7,0.1-5.1c0-0.8,0.2-1.6,0.4-2.3C3.1,4,4,3.1,5,2.7c0.7-0.3,1.5-0.4,2.3-0.4
		C8.7,2.2,9,2.2,12.4,2.2s3.7,0,5.1,0.1c0.8,0,1.6,0.2,2.3,0.4c1.1,0.4,2,1.3,2.4,2.4c0.3,0.7,0.4,1.5,0.4,2.3
		c0.1,1.3,0.1,1.7,0.1,5.1S22.7,16.2,22.6,17.5z"/>
</g>
</svg>
