<?xml version="1.0" encoding="UTF-8"?><svg id="Capa_2" xmlns="http://www.w3.org/2000/svg" viewBox="0 0 26.16 25"><defs><style>.cls-1{fill:#7c66f6;fill-rule:evenodd;stroke-width:0px;}</style></defs><g id="Capa_1-2"><path class="cls-1" d="m5.94,25V8.13H.33v16.87h5.61ZM3.13,5.83c1.95,0,3.17-1.3,3.17-2.91-.04-1.65-1.22-2.91-3.13-2.91S0,1.26,0,2.91s1.22,2.91,3.1,2.91h.04Z"/><path class="cls-1" d="m9.04,25h5.61v-9.42c0-.5.04-1.01.18-1.37.41-1.01,1.33-2.05,2.88-2.05,2.03,0,2.84,1.55,2.84,3.81v9.02h5.61v-9.67c0-5.18-2.77-7.59-6.46-7.59-3.02,0-4.35,1.69-5.09,2.84h.04v-2.45h-5.61c.07,1.58,0,16.87,0,16.87h0Z"/></g></svg>