<?xml version="1.0" encoding="UTF-8"?><svg id="Capa_2" xmlns="http://www.w3.org/2000/svg" viewBox="0 0 397.15 62.76"><defs><style>.cls-1{fill:#2d2d2d;stroke-width:0px;}</style></defs><g id="Capa_1-2"><rect class="cls-1" x="66.65" y="1.35" width="22.46" height="61.42"/><rect class="cls-1" x="285.8" y="1.35" width="22.46" height="61.42"/><rect class="cls-1" x="308.26" y="40.31" width="22.46" height="22.46"/><circle class="cls-1" cx="366.44" cy="32.06" r="30.71"/><polygon class="cls-1" points="197.5 0 161.26 62.76 233.73 62.76 197.5 0"/><path class="cls-1" d="m130.02,34.73l22.97-20.02c-5.53-8.07-14.82-13.36-25.34-13.36-16.96,0-30.71,13.75-30.71,30.71s13.75,30.71,30.71,30.71c16.06,0,29.23-12.33,30.59-28.04h-28.22Z"/><polygon class="cls-1" points="126.25 62.76 158.24 62.76 158.24 34.68 126.25 62.76"/><rect class="cls-1" y="44.39" width="22.46" height="18.37"/><rect class="cls-1" x="19.67" y="3.38" width="19.41" height="58.75" transform="translate(62.13 3.38) rotate(90)"/><rect class="cls-1" x="19.67" y="-18.32" width="19.41" height="58.75" transform="translate(40.43 -18.32) rotate(90)"/><rect class="cls-1" x="235.87" y="1.35" width="22.46" height="61.42"/><rect class="cls-1" x="258.33" y="40.31" width="22.46" height="22.46"/></g></svg>