<?xml version="1.0" encoding="UTF-8"?><svg id="Capa_2" xmlns="http://www.w3.org/2000/svg" viewBox="0 0 387.48 477.45"><defs><style>.cls-1{fill:#2d2d2d;stroke-width:0px;}</style></defs><g id="Capa_1-2"><rect class="cls-1" x="160.13" width="53.95" height="147.56"/><rect class="cls-1" y="328.55" width="53.95" height="147.56"/><rect class="cls-1" x="53.95" y="422.16" width="53.95" height="53.95"/><rect class="cls-1" x="119.96" y="328.55" width="53.95" height="147.56"/><rect class="cls-1" x="173.91" y="422.16" width="53.95" height="53.95"/><rect class="cls-1" y="103.42" width="53.95" height="44.13"/><rect class="cls-1" x="47.26" y="4.89" width="46.64" height="141.16" transform="translate(146.05 4.89) rotate(90)"/><rect class="cls-1" x="47.26" y="-47.26" width="46.64" height="141.16" transform="translate(93.9 -47.26) rotate(90)"/><circle class="cls-1" cx="313.7" cy="403.67" r="73.78"/><polygon class="cls-1" points="241.57 160.52 154.51 311.31 328.63 311.31 241.57 160.52"/><path class="cls-1" d="m79.47,244.15l55.19-48.09c-13.29-19.38-35.6-32.1-60.88-32.1C33.03,163.95,0,196.98,0,237.73s33.03,73.78,73.78,73.78c38.58,0,70.23-29.62,73.48-67.36h-67.8Z"/><polygon class="cls-1" points="70.39 311.51 147.26 311.51 147.26 244.04 70.39 311.51"/></g></svg>