<?xml version="1.0" encoding="utf-8"?>
<!-- Generator: Adobe Illustrator 28.0.0, SVG Export Plug-In . SVG Version: 6.00 Build 0)  -->
<svg version="1.1" id="Capa_2_00000057117595191754653180000014464298770404559278_"
	 xmlns="http://www.w3.org/2000/svg" xmlns:xlink="http://www.w3.org/1999/xlink" x="0px" y="0px" viewBox="0 0 1949.9 89.8"
	 style="enable-background:new 0 0 1949.9 89.8;" xml:space="preserve">
<style type="text/css">
	.st0{fill:#D7E06D;}
</style>
<g id="Capa_1-2">
	<path class="st0" d="M57.3,89.8c-9-1-16.7-2.2-23.1-3.8c-6.5-1.6-11.9-3.5-16.3-5.7s-7.9-4.9-10.5-8s-4.5-6.5-5.6-10.4
		S0,53.7,0,48.8c0-7.3,1.2-13.4,3.7-18.1s6-8.3,10.4-10.6s9.6-3.5,15.5-3.5s11,1.1,15.5,3.4s7.9,5.8,10.4,10.5
		c2.5,4.7,3.8,10.8,3.8,18.1c0,6.7-1.1,12.4-3.2,17.1c-2.2,4.7-5.4,8.2-9.6,10.7s-9.5,3.7-15.8,3.7c-1,0-1.9,0-2.9-0.1s-2-0.1-3-0.2
		l2.1-1.8c2.8,1.1,6,2,9.4,2.8s7.1,1.4,10.8,1.9s7.4,0.9,11.1,1.2C58.3,83.9,57.3,89.8,57.3,89.8z M29.7,74.5
		c4.5,0,8.3-0.9,11.7-2.6s5.9-4.5,7.8-8.3c1.8-3.8,2.8-8.7,2.8-14.8s-0.9-11.2-2.8-15s-4.5-6.6-7.8-8.4s-7.2-2.6-11.6-2.6
		s-8.3,0.9-11.6,2.6c-3.3,1.8-5.9,4.5-7.8,8.3c-1.8,3.8-2.8,8.7-2.8,14.8s0.9,11.3,2.7,15.1s4.4,6.6,7.8,8.4S25.2,74.5,29.7,74.5
		L29.7,74.5z"/>
	<path class="st0" d="M199.8,80.7c-6,0-10.9-0.9-14.7-2.8c-3.8-1.9-6.7-4.7-8.5-8.6c-1.9-3.9-2.8-8.8-2.8-14.7V17.4h7.3v37.9
		c0,6.7,1.5,11.6,4.6,14.6s7.8,4.6,14.1,4.6s11.1-1.5,14.1-4.6c3-3,4.6-7.9,4.6-14.7V17.4h7.2v37.2c0,5.9-0.9,10.8-2.8,14.7
		c-1.8,3.9-4.7,6.7-8.5,8.6C210.6,79.7,205.7,80.7,199.8,80.7L199.8,80.7z"/>
	<path class="st0" d="M343,79.9V17.4h7.4v62.5C350.4,79.9,343,79.9,343,79.9z"/>
	<path class="st0" d="M468,79.9V17.4h43.7v5.9h-36.4V74h36.8v5.9H468L468,79.9z M471.8,50.8v-5.9h35.5v5.9H471.8z M487.2,12l9.2-12
		h8l-10.3,12H487.2L487.2,12z"/>
	<path class="st0" d="M625.8,79.9V17.4h7.5l40.9,54.7h-1.8V17.4h7v62.5H672l-40.9-54.7h1.8v54.7L625.8,79.9L625.8,79.9z"/>
	<path class="st0" d="M797.1,79.9V17.4h43.7v5.9h-36.4V74h36.8v5.9H797.1L797.1,79.9z M800.9,50.8v-5.9h35.5v5.9H800.9z"/>
	<path class="st0" d="M969.6,80.7c-3,0-6-0.2-9.1-0.7c-3-0.5-6-1.2-8.7-2.1v-6.1c2,0.7,4,1.2,6.1,1.7c2.1,0.4,4.1,0.7,6.1,0.9
		s3.9,0.3,5.6,0.3c5.9,0,10.3-1,13-3s4.1-4.8,4.1-8.6c0-3.2-1.1-5.6-3.2-7.2s-5.7-2.9-10.8-3.9l-3.8-0.7c-6.4-1.2-11-3.3-13.9-6.1
		c-2.9-2.8-4.3-6.5-4.3-11c0-5.5,2-9.8,6.1-12.9s10.2-4.7,18.3-4.7c2.9,0,5.7,0.2,8.4,0.6s5.2,0.9,7.6,1.6V25
		c-2.5-0.8-5.1-1.4-7.8-1.8c-2.7-0.4-5.5-0.6-8.2-0.6c-3.9,0-7.2,0.4-9.7,1.3c-2.5,0.9-4.4,2.1-5.6,3.8c-1.2,1.7-1.8,3.7-1.8,6.1
		c0,3.1,0.9,5.5,2.8,7.1c1.9,1.7,5.2,3,9.9,3.9l3.8,0.8c4.7,0.9,8.5,2.1,11.3,3.6s4.9,3.4,6.2,5.6s2,4.8,2,7.8c0,3.8-1,7.1-2.9,9.7
		s-4.7,4.7-8.4,6.1C979.2,80,974.7,80.7,969.6,80.7L969.6,80.7z"/>
	<path class="st0" d="M1246.9,80.7c-3,0-6-0.2-9.1-0.7c-3.1-0.5-6-1.2-8.7-2.1v-6.1c2,0.7,4.1,1.2,6.1,1.7c2.1,0.4,4.1,0.7,6.1,0.9
		s3.9,0.3,5.6,0.3c5.9,0,10.3-1,13-3s4.1-4.8,4.1-8.6c0-3.2-1.1-5.6-3.2-7.2c-2.1-1.6-5.7-2.9-10.8-3.9l-3.8-0.7
		c-6.4-1.2-11-3.3-13.9-6.1c-2.9-2.8-4.3-6.5-4.3-11c0-5.5,2-9.8,6.1-12.9c4.1-3.1,10.2-4.7,18.3-4.7c2.9,0,5.7,0.2,8.4,0.6
		s5.2,0.9,7.6,1.6V25c-2.5-0.8-5.1-1.4-7.8-1.8c-2.7-0.4-5.4-0.6-8.2-0.6c-3.9,0-7.2,0.4-9.7,1.3c-2.5,0.9-4.4,2.1-5.6,3.8
		c-1.2,1.7-1.8,3.7-1.8,6.1c0,3.1,0.9,5.5,2.8,7.1c1.9,1.7,5.2,3,9.9,3.9l3.8,0.8c4.7,0.9,8.5,2.1,11.3,3.6c2.8,1.5,4.9,3.4,6.2,5.6
		c1.3,2.2,2,4.8,2,7.8c0,3.8-1,7.1-2.9,9.7s-4.7,4.7-8.4,6.1C1256.5,80,1252.1,80.7,1246.9,80.7L1246.9,80.7z"/>
	<path class="st0" d="M1411.6,80.7c-5.9,0-11.1-1.2-15.6-3.5c-4.5-2.3-7.9-5.8-10.4-10.6c-2.5-4.7-3.7-10.7-3.7-18s1.2-13.3,3.7-18
		s6-8.3,10.4-10.6s9.6-3.5,15.5-3.5s11.1,1.2,15.6,3.5s7.9,5.9,10.4,10.6c2.5,4.7,3.7,10.7,3.7,18s-1.2,13.2-3.8,18
		s-6,8.3-10.4,10.6C1422.6,79.5,1417.4,80.7,1411.6,80.7L1411.6,80.7z M1411.6,74.5c4.4,0,8.3-0.9,11.7-2.6s5.9-4.5,7.8-8.3
		c1.8-3.8,2.8-8.7,2.8-14.8s-0.9-11.2-2.8-15s-4.4-6.6-7.8-8.4c-3.3-1.8-7.2-2.6-11.7-2.6s-8.3,0.9-11.6,2.6
		c-3.3,1.8-5.9,4.5-7.8,8.3c-1.8,3.8-2.8,8.7-2.8,14.8s0.9,11.2,2.8,15.1c1.8,3.8,4.4,6.6,7.8,8.4
		C1403.2,73.7,1407.1,74.5,1411.6,74.5z"/>
	<path class="st0" d="M1556.2,79.9V17.4h8.7l25,48.6h-1.6l24.8-48.5h8.6v62.5h-6.9V23.3h2.2l-24.7,47.9h-6.7l-25-47.9h2.5v56.6
		L1556.2,79.9L1556.2,79.9z"/>
	<path class="st0" d="M1766.3,80.7c-5.9,0-11.1-1.2-15.6-3.5c-4.5-2.3-7.9-5.8-10.4-10.6c-2.5-4.7-3.7-10.7-3.7-18s1.2-13.3,3.7-18
		s6-8.3,10.4-10.6s9.6-3.5,15.5-3.5s11.1,1.2,15.6,3.5s7.9,5.9,10.4,10.6c2.5,4.7,3.7,10.7,3.7,18s-1.2,13.2-3.8,18
		s-6,8.3-10.4,10.6C1777.4,79.5,1772.2,80.7,1766.3,80.7L1766.3,80.7z M1766.3,74.5c4.4,0,8.3-0.9,11.7-2.6s5.9-4.5,7.8-8.3
		c1.8-3.8,2.8-8.7,2.8-14.8s-0.9-11.2-2.8-15s-4.4-6.6-7.8-8.4c-3.3-1.8-7.2-2.6-11.7-2.6s-8.3,0.9-11.6,2.6
		c-3.3,1.8-5.9,4.5-7.8,8.3c-1.8,3.8-2.8,8.7-2.8,14.8s0.9,11.2,2.8,15.1c1.8,3.8,4.4,6.6,7.8,8.4
		C1758,73.7,1761.9,74.5,1766.3,74.5z"/>
	<path class="st0" d="M1925.4,80.7c-3,0-6-0.2-9.1-0.7c-3.1-0.5-6-1.2-8.7-2.1v-6.1c2,0.7,4.1,1.2,6.1,1.7c2.1,0.4,4.1,0.7,6.1,0.9
		s3.9,0.3,5.6,0.3c5.9,0,10.3-1,13-3s4.1-4.8,4.1-8.6c0-3.2-1.1-5.6-3.2-7.2c-2.1-1.6-5.7-2.9-10.8-3.9l-3.8-0.7
		c-6.4-1.2-11-3.3-13.9-6.1c-2.9-2.8-4.3-6.5-4.3-11c0-5.5,2-9.8,6.1-12.9c4.1-3.1,10.2-4.7,18.3-4.7c2.9,0,5.7,0.2,8.4,0.6
		s5.2,0.9,7.6,1.6V25c-2.5-0.8-5.1-1.4-7.8-1.8c-2.7-0.4-5.4-0.6-8.2-0.6c-3.9,0-7.2,0.4-9.7,1.3c-2.5,0.9-4.4,2.1-5.6,3.8
		c-1.2,1.7-1.8,3.7-1.8,6.1c0,3.1,0.9,5.5,2.8,7.1c1.9,1.7,5.2,3,9.9,3.9l3.8,0.8c4.7,0.9,8.5,2.1,11.3,3.6c2.8,1.5,4.9,3.4,6.2,5.6
		c1.3,2.2,2,4.8,2,7.8c0,3.8-1,7.1-2.9,9.7s-4.7,4.7-8.4,6.1C1934.9,80,1930.5,80.7,1925.4,80.7L1925.4,80.7z"/>
</g>
</svg>
