<?xml version="1.0" encoding="UTF-8"?><svg id="Capa_2" xmlns="http://www.w3.org/2000/svg" viewBox="0 0 1735.23 73.57"><defs><style>.cls-1{fill:#2d2d2d;stroke-width:0px;}</style></defs><g id="Capa_1-2"><path class="cls-1" d="m16.05,73.26c-1.75,0-3.46-.03-5.16-.1-1.69-.06-3.43-.17-5.22-.33-1.78-.15-3.68-.35-5.68-.58V17.09c1.85-.38,3.77-.71,5.77-.98s4-.47,6.01-.6c2-.13,3.91-.19,5.74-.19,10.42,0,18.34,2.4,23.75,7.2,5.42,4.8,8.12,12.08,8.12,21.83,0,6.57-1.24,11.99-3.72,16.27-2.48,4.27-6.19,7.45-11.13,9.53-4.94,2.08-11.11,3.12-18.5,3.12Zm1.31-5.54c5.65,0,10.33-.83,14.05-2.5,3.72-1.67,6.5-4.23,8.33-7.68,1.83-3.45,2.75-7.86,2.75-13.22s-.92-9.74-2.77-13.21-4.62-6.04-8.32-7.72c-3.7-1.68-8.32-2.52-13.86-2.52-1.72,0-3.48.08-5.27.23-1.8.15-3.66.38-5.58.69v45.28c1.46.18,3.04.33,4.74.46,1.69.13,3.67.19,5.93.19Z"/><path class="cls-1" d="m129.09,73.57c-5.39,0-10.12-1.05-14.19-3.16-4.07-2.1-7.23-5.32-9.49-9.64-2.26-4.32-3.39-9.8-3.39-16.42s1.14-12.1,3.41-16.42c2.27-4.33,5.45-7.54,9.53-9.64s8.79-3.16,14.13-3.16,10.15,1.06,14.21,3.18c4.06,2.12,7.21,5.34,9.47,9.66,2.26,4.33,3.39,9.79,3.39,16.38s-1.14,12.06-3.43,16.38c-2.28,4.33-5.45,7.55-9.51,9.66-4.06,2.12-8.77,3.18-14.13,3.18Zm0-5.62c4.06,0,7.6-.79,10.65-2.39,3.04-1.59,5.4-4.11,7.08-7.56,1.68-3.45,2.52-7.94,2.52-13.46s-.85-10.22-2.54-13.73c-1.69-3.5-4.06-6.06-7.08-7.66-3.03-1.6-6.57-2.41-10.63-2.41s-7.56.8-10.61,2.39c-3.04,1.59-5.4,4.11-7.08,7.55-1.68,3.44-2.52,7.93-2.52,13.47s.84,10.26,2.52,13.76c1.68,3.5,4.04,6.05,7.06,7.64,3.03,1.59,6.57,2.39,10.63,2.39Zm-3.16-57.02l8.39-10.93h7.28l-9.43,10.93h-6.24Z"/><path class="cls-1" d="m211.52,72.84V15.86h6.85l37.31,49.86h-1.62V15.86h6.39v56.98h-6.85l-37.31-49.86h1.62v49.86h-6.39Z"/><path class="cls-1" d="m334.49,73.26c-1.75,0-3.46-.03-5.16-.1-1.69-.06-3.43-.17-5.22-.33-1.78-.15-3.68-.35-5.68-.58V17.09c1.85-.38,3.77-.71,5.77-.98s4-.47,6.01-.6c2-.13,3.91-.19,5.74-.19,10.42,0,18.34,2.4,23.75,7.2,5.42,4.8,8.12,12.08,8.12,21.83,0,6.57-1.24,11.99-3.72,16.27-2.48,4.27-6.19,7.45-11.13,9.53-4.94,2.08-11.11,3.12-18.5,3.12Zm1.31-5.54c5.65,0,10.33-.83,14.05-2.5,3.72-1.67,6.5-4.23,8.33-7.68,1.83-3.45,2.75-7.86,2.75-13.22s-.92-9.74-2.77-13.21-4.62-6.04-8.32-7.72c-3.7-1.68-8.32-2.52-13.86-2.52-1.72,0-3.48.08-5.27.23-1.8.15-3.66.38-5.58.69v45.28c1.46.18,3.04.33,4.74.46,1.69.13,3.67.19,5.93.19Z"/><path class="cls-1" d="m423.11,72.84V15.86h39.81v5.35h-33.19v46.28h33.57v5.35h-40.19Zm3.46-26.57v-5.35h32.42v5.35h-32.42Z"/><path class="cls-1" d="m582.39,72.84V15.86h39.81v5.35h-33.19v46.28h33.57v5.35h-40.19Zm3.46-26.57v-5.35h32.42v5.35h-32.42Z"/><path class="cls-1" d="m677.06,72.84V15.86h6.85l37.31,49.86h-1.62V15.86h6.39v56.98h-6.85l-37.31-49.86h1.62v49.86h-6.39Z"/><path class="cls-1" d="m810.5,73.57c-4.42,0-8.41-.54-11.97-1.62-3.57-1.08-6.64-2.77-9.2-5.08-2.57-2.31-4.54-5.31-5.93-9.01-1.39-3.7-2.08-8.16-2.08-13.4,0-6.62,1.19-12.1,3.58-16.44s5.8-7.57,10.24-9.7c4.44-2.13,9.77-3.2,15.98-3.2,2.67,0,5.14.15,7.41.46s4.56.78,6.87,1.42v5.66c-2.18-.62-4.45-1.08-6.8-1.41-2.35-.32-4.74-.48-7.18-.48-4.95,0-9.14.8-12.57,2.41-3.43,1.6-6.04,4.14-7.83,7.6-1.8,3.46-2.7,7.97-2.7,13.51s.91,10.4,2.73,13.86c1.82,3.46,4.41,5.95,7.78,7.47,3.36,1.51,7.35,2.27,11.97,2.27,2.54,0,4.95-.17,7.24-.52,2.28-.35,4.74-.94,7.35-1.79v5.66c-2.31.77-4.68,1.35-7.12,1.73-2.44.39-5.03.58-7.78.58Z"/><path class="cls-1" d="m902.59,73.57c-5.39,0-10.12-1.05-14.19-3.16-4.07-2.1-7.23-5.32-9.49-9.64-2.26-4.32-3.39-9.8-3.39-16.42s1.14-12.1,3.41-16.42c2.27-4.33,5.45-7.54,9.53-9.64s8.79-3.16,14.13-3.16,10.15,1.06,14.21,3.18c4.06,2.12,7.21,5.34,9.47,9.66,2.26,4.33,3.39,9.79,3.39,16.38s-1.14,12.06-3.43,16.38c-2.28,4.33-5.45,7.55-9.51,9.66-4.06,2.12-8.77,3.18-14.13,3.18Zm0-5.62c4.06,0,7.6-.79,10.65-2.39,3.04-1.59,5.4-4.11,7.08-7.56,1.68-3.45,2.52-7.94,2.52-13.46s-.85-10.22-2.54-13.73c-1.69-3.5-4.06-6.06-7.08-7.66-3.03-1.6-6.57-2.41-10.63-2.41s-7.56.8-10.61,2.39c-3.04,1.59-5.4,4.11-7.08,7.55-1.68,3.44-2.52,7.93-2.52,13.47s.84,10.26,2.52,13.76c1.68,3.5,4.04,6.05,7.06,7.64,3.03,1.59,6.57,2.39,10.63,2.39Z"/><path class="cls-1" d="m985.02,72.84V15.86h6.85l37.31,49.86h-1.62V15.86h6.39v56.98h-6.85l-37.31-49.86h1.62v49.86h-6.39Z"/><path class="cls-1" d="m1106.56,72.84V21.41h-21.25v-5.54h49.16v5.54h-21.25v51.44h-6.66Z"/><path class="cls-1" d="m1185.8,72.84V17.09c1.59-.33,3.29-.64,5.1-.91s3.73-.49,5.76-.67c2.03-.18,4.17-.27,6.43-.27,8.16,0,14.24,1.32,18.23,3.97,3.99,2.64,5.99,6.97,5.99,12.97,0,3.82-.95,7.01-2.85,9.55-1.9,2.54-4.72,4.45-8.45,5.74-3.73,1.28-8.36,1.92-13.88,1.92-1.82,0-3.48-.04-4.99-.13s-3.09-.2-4.75-.33v23.91h-6.58Zm16.55-28.61c6.6,0,11.35-.99,14.26-2.96s4.37-4.97,4.37-8.97c0-2.95-.62-5.31-1.85-7.06s-3.14-3.01-5.72-3.75-5.91-1.12-9.99-1.12c-2.36,0-4.38.09-6.04.27-1.67.18-3.34.42-5,.73v22.37c1.21.1,2.3.19,3.29.27.99.08,2,.13,3.04.17,1.04.04,2.25.06,3.64.06Zm21.56,28.61l-21.98-26.95h7.58l22.1,26.95h-7.7Z"/><path class="cls-1" d="m1279,72.84l23.14-56.98h9.32l23.18,56.98h-6.78l-21.64-53.86h1.08l-21.6,53.86h-6.7Zm12.63-18.4l1.66-5.39h26.99l1.66,5.39h-30.3Z"/><path class="cls-1" d="m1386.69,72.84V17.09c1.59-.33,3.29-.64,5.1-.91s3.73-.49,5.76-.67c2.03-.18,4.17-.27,6.43-.27,8.16,0,14.24,1.32,18.23,3.97,3.99,2.64,5.99,6.97,5.99,12.97,0,3.82-.95,7.01-2.85,9.55-1.9,2.54-4.72,4.45-8.45,5.74-3.73,1.28-8.36,1.92-13.88,1.92-1.82,0-3.48-.04-4.99-.13s-3.09-.2-4.75-.33v23.91h-6.58Zm16.55-28.61c6.6,0,11.35-.99,14.26-2.96s4.37-4.97,4.37-8.97c0-2.95-.62-5.31-1.85-7.06s-3.14-3.01-5.72-3.75-5.91-1.12-9.99-1.12c-2.36,0-4.38.09-6.04.27-1.67.18-3.34.42-5,.73v22.37c1.21.1,2.3.19,3.29.27.99.08,2,.13,3.04.17,1.04.04,2.25.06,3.64.06Zm21.56,28.61l-21.98-26.95h7.58l22.1,26.95h-7.7Z"/><path class="cls-1" d="m1485.79,72.84V15.86h6.85l37.31,49.86h-1.62V15.86h6.39v56.98h-6.85l-37.31-49.86h1.62v49.86h-6.39Z"/><path class="cls-1" d="m1617.11,73.57c-5.39,0-10.12-1.05-14.19-3.16-4.07-2.1-7.23-5.32-9.49-9.64-2.26-4.32-3.39-9.8-3.39-16.42s1.14-12.1,3.41-16.42c2.27-4.33,5.45-7.54,9.53-9.64s8.79-3.16,14.13-3.16,10.15,1.06,14.21,3.18c4.06,2.12,7.21,5.34,9.47,9.66,2.26,4.33,3.39,9.79,3.39,16.38s-1.14,12.06-3.43,16.38c-2.28,4.33-5.45,7.55-9.51,9.66-4.06,2.12-8.77,3.18-14.13,3.18Zm0-5.62c4.06,0,7.6-.79,10.65-2.39,3.04-1.59,5.4-4.11,7.08-7.56,1.68-3.45,2.52-7.94,2.52-13.46s-.85-10.22-2.54-13.73c-1.69-3.5-4.06-6.06-7.08-7.66-3.03-1.6-6.57-2.41-10.63-2.41s-7.56.8-10.61,2.39c-3.04,1.59-5.4,4.11-7.08,7.55-1.68,3.44-2.52,7.93-2.52,13.47s.84,10.26,2.52,13.76c1.68,3.5,4.04,6.05,7.06,7.64,3.03,1.59,6.57,2.39,10.63,2.39Z"/><path class="cls-1" d="m1712.86,73.57c-2.75,0-5.51-.21-8.3-.63-2.79-.42-5.44-1.06-7.95-1.91v-5.58c1.82.62,3.69,1.12,5.6,1.5,1.91.38,3.78.67,5.6.85,1.82.18,3.53.27,5.12.27,5.42,0,9.37-.9,11.86-2.7,2.49-1.8,3.73-4.4,3.73-7.82,0-2.9-.97-5.09-2.91-6.58-1.94-1.49-5.22-2.67-9.84-3.54l-3.47-.65c-5.83-1.13-10.06-2.97-12.69-5.53-2.63-2.55-3.95-5.91-3.95-10.07,0-4.98,1.85-8.9,5.54-11.76,3.7-2.86,9.27-4.29,16.71-4.29,2.67,0,5.24.18,7.7.54,2.46.36,4.79.86,6.97,1.5v5.58c-2.28-.72-4.67-1.25-7.14-1.6-2.48-.35-4.97-.52-7.49-.52-3.59,0-6.54.4-8.84,1.19-2.3.8-4,1.96-5.12,3.5-1.12,1.54-1.67,3.4-1.67,5.58,0,2.82.85,4.99,2.56,6.51,1.71,1.51,4.72,2.71,9.03,3.58l3.5.69c4.29.79,7.73,1.89,10.32,3.27,2.59,1.39,4.49,3.09,5.68,5.12,1.19,2.03,1.79,4.4,1.79,7.12,0,3.49-.89,6.45-2.66,8.87-1.77,2.43-4.32,4.28-7.64,5.56-3.32,1.28-7.35,1.92-12.07,1.92Z"/></g></svg>