<?xml version="1.0" encoding="UTF-8"?><svg id="Capa_2" xmlns="http://www.w3.org/2000/svg" viewBox="0 0 1785.4 81.89"><defs><style>.cls-1{fill:#dae17d;stroke-width:0px;}</style></defs><g id="Capa_1-2"><path class="cls-1" d="m52.24,81.89c-8.16-.87-15.19-2.02-21.1-3.43-5.9-1.41-10.86-3.16-14.88-5.24-4.02-2.08-7.21-4.5-9.59-7.28s-4.08-5.94-5.12-9.49c-1.04-3.55-1.56-7.53-1.56-11.92,0-6.67,1.14-12.19,3.41-16.54,2.27-4.35,5.45-7.58,9.53-9.7,4.08-2.12,8.79-3.18,14.13-3.18s10.07,1.03,14.13,3.1c4.05,2.07,7.22,5.26,9.51,9.57,2.28,4.31,3.43,9.83,3.43,16.55,0,6.13-.98,11.34-2.95,15.61-1.96,4.27-4.88,7.53-8.76,9.76-3.88,2.23-8.68,3.35-14.4,3.35-.87,0-1.75-.02-2.62-.06-.87-.04-1.78-.11-2.73-.21l1.89-1.66c2.57,1,5.44,1.84,8.61,2.52,3.17.68,6.46,1.26,9.88,1.73,3.41.47,6.79.85,10.12,1.14l-.92,5.35Zm-25.18-13.94c4.06,0,7.6-.79,10.65-2.39,3.04-1.59,5.4-4.11,7.08-7.57,1.68-3.45,2.52-7.94,2.52-13.46s-.85-10.22-2.54-13.73c-1.69-3.5-4.06-6.06-7.08-7.66-3.03-1.6-6.57-2.41-10.63-2.41s-7.57.8-10.61,2.39c-3.04,1.59-5.4,4.11-7.08,7.55-1.68,3.44-2.52,7.93-2.52,13.48s.83,10.29,2.5,13.78c1.67,3.49,4.02,6.03,7.06,7.62,3.04,1.59,6.59,2.39,10.65,2.39Z"/><path class="cls-1" d="m208.4,73.57c-5.44,0-9.91-.85-13.4-2.56-3.49-1.71-6.08-4.32-7.78-7.83-1.69-3.52-2.54-7.98-2.54-13.4V15.86h6.66v34.57c0,6.13,1.39,10.59,4.18,13.36s7.08,4.16,12.88,4.16,10.09-1.39,12.86-4.16c2.77-2.77,4.16-7.23,4.16-13.36V15.86h6.54v33.92c0,5.42-.84,9.88-2.52,13.4-1.68,3.52-4.26,6.13-7.74,7.83-3.48,1.71-7.91,2.56-13.3,2.56Z"/><path class="cls-1" d="m365.13,72.84V15.86h39.81v5.35h-33.19v46.28h33.57v5.35h-40.19Zm3.46-26.56v-5.35h32.42v5.35h-32.42Zm14.09-35.34l8.39-10.93h7.28l-9.43,10.93h-6.24Z"/><path class="cls-1" d="m675.33,72.84V15.86h6.7v24.79h34.57V15.86h6.66v56.98h-6.66v-26.3h-34.57v26.3h-6.7Z"/><path class="cls-1" d="m850.89,72.84l23.14-56.98h9.32l23.18,56.98h-6.78l-21.64-53.86h1.08l-21.6,53.86h-6.7Zm12.63-18.4l1.66-5.39h26.99l1.66,5.39h-30.3Z"/><path class="cls-1" d="m1060.56,73.57c-4.41,0-8.41-.54-11.97-1.62-3.57-1.08-6.64-2.77-9.2-5.08-2.57-2.31-4.54-5.31-5.93-9.01-1.39-3.7-2.08-8.16-2.08-13.4,0-6.62,1.19-12.1,3.58-16.44,2.39-4.34,5.8-7.57,10.24-9.7,4.44-2.13,9.77-3.2,15.98-3.2,2.67,0,5.14.15,7.41.46s4.56.78,6.87,1.42v5.66c-2.18-.62-4.45-1.08-6.8-1.41-2.35-.32-4.74-.48-7.18-.48-4.95,0-9.14.8-12.57,2.41-3.43,1.6-6.04,4.14-7.83,7.6s-2.7,7.97-2.7,13.51.91,10.4,2.73,13.86c1.82,3.46,4.41,5.95,7.78,7.47,3.36,1.52,7.35,2.27,11.97,2.27,2.54,0,4.95-.17,7.24-.52,2.28-.35,4.73-.94,7.35-1.79v5.66c-2.31.77-4.68,1.35-7.12,1.73-2.44.39-5.03.58-7.78.58Z"/><path class="cls-1" d="m1203.7,72.84V15.86h39.81v5.35h-33.19v46.28h33.57v5.35h-40.19Zm3.46-26.56v-5.35h32.42v5.35h-32.42Z"/><path class="cls-1" d="m1373.98,72.84V15.86h7.89l22.83,44.27h-1.42l22.64-44.27h7.81v56.98h-6.28V21.25h2l-22.52,43.7h-6.08l-22.83-43.7h2.27v51.59h-6.31Z"/><path class="cls-1" d="m1591.82,73.57c-5.39,0-10.12-1.05-14.19-3.16-4.07-2.1-7.23-5.32-9.49-9.64-2.26-4.32-3.39-9.8-3.39-16.42s1.14-12.09,3.41-16.42c2.27-4.32,5.45-7.54,9.53-9.64,4.08-2.1,8.79-3.16,14.13-3.16s10.15,1.06,14.21,3.18c4.06,2.12,7.21,5.34,9.47,9.66,2.26,4.33,3.39,9.79,3.39,16.38s-1.14,12.06-3.43,16.38c-2.29,4.33-5.46,7.55-9.51,9.66-4.06,2.12-8.77,3.18-14.13,3.18Zm0-5.62c4.06,0,7.6-.79,10.65-2.39,3.04-1.59,5.4-4.11,7.08-7.57,1.68-3.45,2.52-7.94,2.52-13.46s-.85-10.22-2.54-13.73c-1.69-3.5-4.06-6.06-7.08-7.66-3.03-1.6-6.57-2.41-10.63-2.41s-7.57.8-10.61,2.39c-3.04,1.59-5.4,4.11-7.08,7.55-1.68,3.44-2.52,7.93-2.52,13.48s.84,10.26,2.52,13.76c1.68,3.5,4.04,6.05,7.06,7.64,3.03,1.59,6.57,2.39,10.63,2.39Z"/><path class="cls-1" d="m1763.03,73.57c-2.75,0-5.51-.21-8.3-.64s-5.44-1.06-7.95-1.91v-5.58c1.82.62,3.69,1.12,5.6,1.5,1.91.39,3.78.67,5.6.85,1.82.18,3.53.27,5.12.27,5.42,0,9.37-.9,11.86-2.7,2.49-1.8,3.73-4.4,3.73-7.82,0-2.9-.97-5.09-2.91-6.58-1.94-1.49-5.22-2.67-9.84-3.54l-3.46-.65c-5.83-1.13-10.05-2.97-12.69-5.52-2.63-2.55-3.95-5.91-3.95-10.07,0-4.98,1.85-8.9,5.54-11.76,3.7-2.86,9.27-4.29,16.71-4.29,2.67,0,5.24.18,7.7.54s4.79.86,6.97,1.5v5.58c-2.28-.72-4.66-1.25-7.14-1.6-2.48-.35-4.97-.52-7.49-.52-3.59,0-6.54.4-8.84,1.19-2.3.8-4,1.96-5.12,3.5-1.12,1.54-1.67,3.4-1.67,5.58,0,2.82.85,4.99,2.56,6.51,1.71,1.51,4.72,2.71,9.03,3.58l3.5.69c4.29.8,7.72,1.89,10.32,3.27,2.59,1.39,4.49,3.09,5.68,5.12,1.19,2.03,1.79,4.4,1.79,7.12,0,3.49-.89,6.45-2.66,8.87-1.77,2.43-4.32,4.28-7.64,5.56-3.32,1.28-7.35,1.92-12.07,1.92Z"/></g></svg>