<?xml version="1.0" encoding="UTF-8"?><svg id="Capa_2" xmlns="http://www.w3.org/2000/svg" viewBox="0 0 1812.07 58.44"><defs><style>.cls-1{fill:#7c66f6;stroke-width:0px;}</style></defs><g id="Capa_1-2"><path class="cls-1" d="m0,57.71V.73h6.85l37.31,49.86h-1.62V.73h6.39v56.98h-6.85L4.77,7.85h1.62v49.86H0Z"/><path class="cls-1" d="m143.87,57.71V.73h39.81v5.35h-33.19v46.28h33.57v5.35h-40.19Zm3.46-26.56v-5.35h32.42v5.35h-32.42Z"/><path class="cls-1" d="m289.02,57.71L270.65.73h6.89l16.86,53.52h-1.5L310.35.73h7.85l17.33,53.52h-1.42L351.12.73h6.43l-18.25,56.98h-8.62l-17.4-53.25h1.85l-17.52,53.25h-8.59Z"/><path class="cls-1" d="m562.79,57.71L544.43.73h6.89l16.86,53.52h-1.5L584.12.73h7.85l17.33,53.52h-1.42L624.89.73h6.43l-18.25,56.98h-8.62l-17.4-53.25h1.85l-17.52,53.25h-8.59Z"/><path class="cls-1" d="m745.9,58.44c-5.39,0-10.12-1.05-14.19-3.16-4.07-2.1-7.23-5.32-9.49-9.64-2.26-4.32-3.39-9.8-3.39-16.42s1.14-12.09,3.41-16.42c2.27-4.32,5.45-7.54,9.53-9.64,4.08-2.1,8.79-3.16,14.13-3.16s10.15,1.06,14.21,3.18c4.06,2.12,7.21,5.34,9.47,9.66,2.26,4.33,3.39,9.79,3.39,16.38s-1.14,12.06-3.43,16.38c-2.28,4.33-5.45,7.55-9.51,9.66-4.06,2.12-8.77,3.18-14.13,3.18Zm0-5.62c4.06,0,7.6-.79,10.65-2.39,3.04-1.59,5.4-4.11,7.08-7.57,1.68-3.45,2.52-7.94,2.52-13.46s-.85-10.22-2.54-13.73c-1.69-3.5-4.06-6.06-7.08-7.66-3.03-1.6-6.57-2.41-10.63-2.41s-7.56.8-10.61,2.39c-3.04,1.59-5.4,4.11-7.08,7.55-1.68,3.44-2.52,7.93-2.52,13.48s.84,10.26,2.52,13.76c1.68,3.5,4.04,6.05,7.06,7.64,3.03,1.59,6.57,2.39,10.63,2.39Z"/><path class="cls-1" d="m865.28,57.71V1.96c1.59-.33,3.29-.64,5.1-.9s3.73-.49,5.76-.67c2.03-.18,4.17-.27,6.43-.27,8.16,0,14.24,1.32,18.23,3.97,3.99,2.64,5.99,6.97,5.99,12.97,0,3.82-.95,7.01-2.85,9.55-1.9,2.54-4.72,4.45-8.45,5.74-3.73,1.28-8.36,1.93-13.88,1.93-1.82,0-3.48-.04-4.99-.13s-3.09-.2-4.75-.33v23.91h-6.58Zm16.55-28.61c6.6,0,11.35-.99,14.26-2.96,2.91-1.98,4.37-4.97,4.37-8.97,0-2.95-.62-5.31-1.85-7.06-1.23-1.76-3.14-3.01-5.72-3.75-2.58-.74-5.91-1.12-9.99-1.12-2.36,0-4.38.09-6.04.27-1.67.18-3.34.42-5,.73v22.37c1.21.1,2.3.19,3.29.27.99.08,2,.13,3.04.17s2.25.06,3.64.06Zm21.56,28.61l-21.98-26.95h7.58l22.1,26.95h-7.7Z"/><path class="cls-1" d="m1001.34,57.71V.73h6.7v56.98h-6.7Zm5.62-26.3v-5.89h12.13v5.89h-12.13Zm32.57,26.3l-23.64-29.14,22.18-27.84h7.39l-22.79,28.57.12-1.77,24.33,30.18h-7.58Z"/><path class="cls-1" d="m1230.34,57.71l23.14-56.98h9.32l23.18,56.98h-6.78l-21.64-53.86h1.08l-21.6,53.86h-6.7Zm12.63-18.4l1.66-5.39h26.99l1.66,5.39h-30.3Z"/><path class="cls-1" d="m1374.98,57.71V.73h6.7v51.44h31.92v5.54h-38.62Z"/><path class="cls-1" d="m1501.84,57.71V.73h39.81v5.35h-33.19v46.28h33.57v5.35h-40.19Zm3.46-26.56v-5.35h32.42v5.35h-32.42Z"/><path class="cls-1" d="m1633.47,57.71V1.96c1.59-.33,3.29-.64,5.1-.9s3.73-.49,5.76-.67c2.03-.18,4.17-.27,6.43-.27,8.16,0,14.24,1.32,18.23,3.97,3.99,2.64,5.99,6.97,5.99,12.97,0,3.82-.95,7.01-2.85,9.55-1.9,2.54-4.72,4.45-8.45,5.74-3.73,1.28-8.36,1.93-13.88,1.93-1.82,0-3.48-.04-4.99-.13s-3.09-.2-4.75-.33v23.91h-6.58Zm16.55-28.61c6.6,0,11.35-.99,14.26-2.96,2.91-1.98,4.37-4.97,4.37-8.97,0-2.95-.62-5.31-1.85-7.06-1.23-1.76-3.14-3.01-5.72-3.75-2.58-.74-5.91-1.12-9.99-1.12-2.36,0-4.38.09-6.04.27-1.67.18-3.34.42-5,.73v22.37c1.21.1,2.3.19,3.29.27.99.08,2,.13,3.04.17s2.25.06,3.64.06Zm21.56,28.61l-21.98-26.95h7.58l22.1,26.95h-7.7Z"/><path class="cls-1" d="m1784.16,57.71V6.28h-21.25V.73h49.16v5.54h-21.25v51.44h-6.66Z"/></g></svg>