<?xml version="1.0" encoding="utf-8"?>
<!-- Generator: Adobe Illustrator 28.0.0, SVG Export Plug-In . SVG Version: 6.00 Build 0)  -->
<svg version="1.1" id="Capa_2_00000098909846081801034520000012859113075740530341_"
	 xmlns="http://www.w3.org/2000/svg" xmlns:xlink="http://www.w3.org/1999/xlink" x="0px" y="0px" viewBox="0 0 1902.9 96.9"
	 style="enable-background:new 0 0 1902.9 96.9;" xml:space="preserve">
<style type="text/css">
	.st0{fill:#D7E06D;}
</style>
<g id="Capa_1-2">
	<path class="st0" d="M32.8,82.8c-5,0-9.5-0.6-13.5-1.8S11.9,77.8,9,75.2s-5.1-6-6.7-10.1C0.8,60.9,0,55.9,0,50
		c0-7.5,1.3-13.6,4-18.5s6.5-8.5,11.5-10.9c5-2.4,11-3.6,18-3.6c3,0,5.8,0.2,8.3,0.5s5.1,0.9,7.7,1.6v6.4c-2.5-0.7-5-1.2-7.6-1.6
		s-5.3-0.5-8.1-0.5c-5.6,0-10.3,0.9-14.1,2.7c-3.9,1.8-6.8,4.7-8.8,8.5c-2,3.9-3,9-3,15.2s1,11.7,3.1,15.6c2.1,3.9,5,6.7,8.8,8.4
		c3.8,1.7,8.3,2.6,13.5,2.6c2.9,0,5.6-0.2,8.1-0.6s5.3-1.1,8.3-2v6.4c-2.6,0.9-5.3,1.5-8,1.9C38.9,82.6,35.9,82.8,32.8,82.8
		L32.8,82.8z"/>
	<path class="st0" d="M127.8,82.8c-6.1,0-11.4-1.2-16-3.6s-8.1-6-10.7-10.8c-2.5-4.9-3.8-11-3.8-18.5s1.3-13.6,3.8-18.5
		c2.6-4.9,6.1-8.5,10.7-10.9s9.9-3.5,15.9-3.5c6,0,11.4,1.2,16,3.6s8.1,6,10.6,10.9c2.5,4.9,3.8,11,3.8,18.4s-1.3,13.6-3.9,18.4
		s-6.1,8.5-10.7,10.9C139.1,81.6,133.8,82.8,127.8,82.8L127.8,82.8z M127.8,76.4c4.6,0,8.5-0.9,12-2.7c3.4-1.8,6.1-4.6,8-8.5
		s2.8-8.9,2.8-15.1s-0.9-11.5-2.9-15.4s-4.6-6.8-8-8.6c-3.4-1.8-7.4-2.7-11.9-2.7s-8.5,0.9-11.9,2.7c-3.4,1.8-6.1,4.6-8,8.5
		s-2.8,8.9-2.8,15.2s0.9,11.5,2.8,15.5s4.5,6.8,7.9,8.6C119.2,75.5,123.2,76.4,127.8,76.4L127.8,76.4z"/>
	<path class="st0" d="M211.8,81.9V17.8h7.7l42,56.1h-1.8V17.8h7.2v64.1h-7.7l-42-56.1h1.8v56.1H211.8z"/>
	<path class="st0" d="M443.2,92.1c-9.2-1-17.1-2.3-23.7-3.8c-6.6-1.6-12.2-3.6-16.7-5.9s-8.1-5.1-10.8-8.2s-4.6-6.7-5.8-10.7
		s-1.8-8.5-1.8-13.4c0-7.5,1.3-13.7,3.8-18.6c2.6-4.9,6.1-8.5,10.7-10.9s9.9-3.6,15.9-3.6s11.3,1.2,15.9,3.5
		c4.6,2.3,8.1,5.9,10.7,10.8s3.9,11.1,3.9,18.6c0,6.9-1.1,12.8-3.3,17.6s-5.5,8.5-9.9,11c-4.4,2.5-9.8,3.8-16.2,3.8
		c-1,0-2,0-2.9-0.1s-2-0.1-3.1-0.2l2.1-1.9c2.9,1.1,6.1,2.1,9.7,2.8c3.6,0.8,7.3,1.4,11.1,1.9c3.8,0.5,7.6,1,11.4,1.3L443.2,92.1
		L443.2,92.1z M414.9,76.4c4.6,0,8.5-0.9,12-2.7c3.4-1.8,6.1-4.6,8-8.5s2.8-8.9,2.8-15.1s-1-11.5-2.9-15.4c-1.9-3.9-4.6-6.8-8-8.6
		c-3.4-1.8-7.4-2.7-12-2.7s-8.5,0.9-11.9,2.7c-3.4,1.8-6.1,4.6-8,8.5s-2.8,8.9-2.8,15.2s0.9,11.6,2.8,15.5c1.9,3.9,4.5,6.8,8,8.6
		S410.4,76.4,414.9,76.4L414.9,76.4z"/>
	<path class="st0" d="M525.3,82.8c-6.1,0-11.2-1-15.1-2.9c-3.9-1.9-6.8-4.9-8.8-8.8c-1.9-4-2.9-9-2.9-15.1V17.8h7.5v38.9
		c0,6.9,1.6,11.9,4.7,15s8,4.7,14.5,4.7s11.3-1.6,14.5-4.7s4.7-8.1,4.7-15V17.8h7.4V56c0,6.1-1,11.1-2.8,15.1
		c-1.9,4-4.8,6.9-8.7,8.8C536.4,81.8,531.4,82.8,525.3,82.8L525.3,82.8z"/>
	<path class="st0" d="M608.1,81.9V17.8h7.5v64.1H608.1z"/>
	<path class="st0" d="M672.2,81.9V17.8H717v6h-37.3v52.1h37.8v6L672.2,81.9L672.2,81.9z M676.1,52.1v-6h36.5v6H676.1L676.1,52.1z
		 M692,12.3L701.4,0h8.2L699,12.3H692z"/>
	<path class="st0" d="M770,81.9V17.8h7.7l42,56.1h-1.8V17.8h7.2v64.1h-7.7l-42-56.1h1.8v56.1H770z"/>
	<path class="st0" d="M962.1,81.9V24.1h-23.9v-6.2h55.3v6.2h-23.9v57.9H962.1L962.1,81.9z"/>
	<path class="st0" d="M1042.6,81.9V19.2c1.8-0.4,3.7-0.7,5.7-1s4.2-0.6,6.5-0.8s4.7-0.3,7.2-0.3c9.2,0,16,1.5,20.5,4.5
		s6.7,7.8,6.7,14.6c0,4.3-1.1,7.9-3.2,10.7c-2.1,2.9-5.3,5-9.5,6.5s-9.4,2.2-15.6,2.2c-2.1,0-3.9,0-5.6-0.2s-3.5-0.2-5.3-0.4v26.9
		L1042.6,81.9L1042.6,81.9z M1061.2,49.8c7.4,0,12.8-1.1,16.1-3.3s4.9-5.6,4.9-10.1c0-3.3-0.7-6-2.1-8s-3.5-3.4-6.4-4.2
		c-2.9-0.8-6.7-1.3-11.2-1.3c-2.7,0-4.9,0.1-6.8,0.3c-1.9,0.2-3.8,0.5-5.6,0.8v25.2c1.4,0.1,2.6,0.2,3.7,0.3
		c1.1,0.1,2.2,0.2,3.4,0.2S1059.6,49.7,1061.2,49.8L1061.2,49.8z M1085.4,81.9l-24.7-30.3h8.5l24.9,30.3H1085.4z"/>
	<path class="st0" d="M1138.8,81.9l26-64.1h10.5l26.1,64.1h-7.6l-24.3-60.6h1.2l-24.3,60.6H1138.8L1138.8,81.9z M1153,61.2l1.9-6.1
		h30.4l1.9,6.1H1153z"/>
	<path class="st0" d="M1269.2,82.5c-1.9,0-3.9,0-5.8-0.1s-3.9-0.2-5.9-0.4s-4.1-0.4-6.3-0.7V19.2c2.1-0.5,4.2-0.8,6.3-1.1
		c2.1-0.3,4.3-0.5,6.6-0.7s4.6-0.2,7.2-0.2c6.2,0,11.2,0.7,15.1,2c3.9,1.3,6.7,3.2,8.5,5.8c1.8,2.6,2.7,5.7,2.7,9.5
		c0,2.6-0.5,4.9-1.5,7c-1,2.1-2.5,3.8-4.5,5.1s-4.6,2.3-7.8,2.8l0.2-0.7c5.2,0.5,9.1,2.2,11.6,5s3.8,6.3,3.8,10.7
		c0,2.9-0.5,5.5-1.6,7.8c-1.1,2.3-2.8,4.2-5.2,5.7c-2.4,1.6-5.5,2.7-9.3,3.5S1274.8,82.5,1269.2,82.5L1269.2,82.5z M1270.7,76.8
		c5.6,0,10-0.5,13.1-1.4c3.2-1,5.4-2.4,6.7-4.3c1.3-1.9,1.9-4.2,1.9-7c0-4.2-1.4-7.3-4.2-9.2c-2.8-1.9-7.2-2.9-13.2-2.9h-17.5v-5.8
		h16.5c3.7,0,6.8-0.4,9.2-1.2c2.4-0.8,4.2-2,5.4-3.8c1.2-1.7,1.8-3.9,1.8-6.6c0-4.2-1.4-7.2-4.3-9c-2.8-1.9-7.6-2.8-14.3-2.8
		c-2.8,0-5.3,0.1-7.4,0.3s-4.1,0.5-5.9,0.8V76c1.9,0.3,3.8,0.5,5.7,0.6S1268.4,76.8,1270.7,76.8L1270.7,76.8z"/>
	<path class="st0" d="M1344.6,81.9l26-64.1h10.5l26.1,64.1h-7.6l-24.3-60.6h1.2l-24.3,60.6H1344.6L1344.6,81.9z M1358.8,61.2
		l1.9-6.1h30.4l1.9,6.1H1358.8z"/>
	<path class="st0" d="M1453.5,96.9l-4.8-3.4c1.9-2.4,3.5-4.8,4.8-7.2s2.2-4.9,2.8-7.6s0.9-5.8,0.9-9.3V17.8h7.5v52.5
		c0,3.5-0.4,6.7-1.1,9.7c-0.8,2.9-1.9,5.8-3.6,8.5C1458.2,91.2,1456.1,94,1453.5,96.9z"/>
	<path class="st0" d="M1514.5,81.9l26-64.1h10.5l26.1,64.1h-7.6l-24.3-60.6h1.2L1522,81.9H1514.5L1514.5,81.9z M1528.7,61.2l1.9-6.1
		h30.4l1.9,6.1H1528.7z"/>
	<path class="st0" d="M1627.2,81.9V17.8h8.9l25.7,49.8h-1.6l25.5-49.8h8.8v64.1h-7.1v-58h2.2l-25.3,49.2h-6.8l-25.7-49.2h2.6v58
		H1627.2L1627.2,81.9z"/>
	<path class="st0" d="M1778.7,82.8c-6.1,0-11.4-1.2-16-3.6s-8.1-6-10.7-10.8c-2.5-4.9-3.8-11-3.8-18.5s1.3-13.6,3.8-18.5
		c2.6-4.9,6.1-8.5,10.7-10.9s9.9-3.5,15.9-3.5s11.4,1.2,16,3.6c4.6,2.4,8.1,6,10.7,10.9c2.5,4.9,3.8,11,3.8,18.4s-1.3,13.6-3.8,18.4
		s-6.1,8.5-10.7,10.9C1790,81.6,1784.7,82.8,1778.7,82.8L1778.7,82.8z M1778.7,76.4c4.6,0,8.6-0.9,12-2.7c3.4-1.8,6.1-4.6,8-8.5
		s2.8-8.9,2.8-15.1s-0.9-11.5-2.9-15.4s-4.6-6.8-8-8.6c-3.4-1.8-7.4-2.7-11.9-2.7s-8.5,0.9-11.9,2.7c-3.4,1.8-6.1,4.6-8,8.5
		s-2.8,8.9-2.8,15.2s0.9,11.5,2.8,15.5s4.5,6.8,7.9,8.6C1770.1,75.5,1774.1,76.4,1778.7,76.4L1778.7,76.4z"/>
	<path class="st0" d="M1877.7,82.8c-3.1,0-6.2-0.2-9.3-0.7c-3.1-0.5-6.1-1.2-8.9-2.1v-6.3c2.1,0.7,4.2,1.3,6.3,1.7s4.2,0.8,6.3,0.9
		s4,0.3,5.8,0.3c6.1,0,10.5-1,13.3-3c2.8-2,4.2-4.9,4.2-8.8c0-3.3-1.1-5.7-3.3-7.4c-2.2-1.7-5.9-3-11.1-4l-3.9-0.7
		c-6.6-1.3-11.3-3.3-14.3-6.2c-3-2.9-4.4-6.7-4.4-11.3c0-5.6,2.1-10,6.2-13.2s10.4-4.8,18.8-4.8c3,0,5.9,0.2,8.7,0.6
		c2.8,0.4,5.4,1,7.8,1.7v6.3c-2.6-0.8-5.2-1.4-8-1.8c-2.8-0.4-5.6-0.6-8.4-0.6c-4,0-7.4,0.5-9.9,1.3c-2.6,0.9-4.5,2.2-5.8,3.9
		c-1.3,1.7-1.9,3.8-1.9,6.3c0,3.2,1,5.6,2.9,7.3s5.3,3,10.2,4l3.9,0.8c4.8,0.9,8.7,2.1,11.6,3.7s5.1,3.5,6.4,5.8c1.3,2.3,2,5,2,8
		c0,3.9-1,7.2-3,10s-4.9,4.8-8.6,6.3C1887.6,82,1883,82.8,1877.7,82.8L1877.7,82.8z"/>
</g>
</svg>
