<?xml version="1.0" encoding="utf-8"?>
<!-- Generator: Adobe Illustrator 28.0.0, SVG Export Plug-In . SVG Version: 6.00 Build 0)  -->
<svg version="1.1" id="Capa_2_00000011733871679460466360000006081726216207429005_"
	 xmlns="http://www.w3.org/2000/svg" xmlns:xlink="http://www.w3.org/1999/xlink" x="0px" y="0px" viewBox="0 0 26.7 25"
	 style="enable-background:new 0 0 26.7 25;" xml:space="preserve">
<style type="text/css">
	.st0{fill:#7C66F6;}
</style>
<g>
	<g>
		<g id="XMLID_3_">
			<path class="st0" d="M13.5,0.4c6.6,0,11.9,5.3,11.9,11.9s-5.3,11.9-11.9,11.9c-3.3,0-5.7-1.5-5.7-1.5l-6.4,1.9l2-6.1
				c0,0-1.7-2.9-1.7-6.2C1.6,5.7,6.9,0.4,13.5,0.4z M23.5,12.3c0-5.5-4.5-10-10-10c-5.5,0-10,4.5-10,10c0,3.2,2,5.9,2,5.9l-1.3,3.6
				L8,20.7c0,0,2.5,1.7,5.5,1.7C19,22.3,23.5,17.8,23.5,12.3z"/>
		</g>
		<path class="st0" d="M9,7.3c0,0,0.3-0.2,0.5-0.2c0.2,0,0.9,0,0.9,0s0.3,0,0.4,0.3c0.1,0.3,0.9,2.1,1,2.3c0.1,0.1,0.2,0.5,0,0.8
			c-0.2,0.3-0.8,0.9-0.8,0.9s-0.2,0.2,0,0.5c0.2,0.3,0.8,1.3,1.6,2c0.8,0.7,1.8,1.3,2.3,1.4c0.5,0.2,0.6-0.1,0.8-0.3
			c0.2-0.2,0.8-1,0.8-1s0.2-0.3,0.6-0.1c0.4,0.2,2.4,1.1,2.4,1.1s0.2,0,0.3,0.3c0,0.3,0.2,1.1-0.5,1.8c-0.7,0.8-2.2,1.1-2.9,0.9
			c-0.7-0.2-3.1-0.8-4.6-2.2c-1.5-1.4-2.8-2.9-3.3-4.1C7.8,10.6,7.8,10,7.8,9.7C7.9,9.4,8,7.9,9,7.3z"/>
	</g>
</g>
</svg>
